<?xml version="1.0" standalone="no"?>
<!DOCTYPE svg PUBLIC "-//W3C//DTD SVG 20010904//EN"
 "http://www.w3.org/TR/2001/REC-SVG-20010904/DTD/svg10.dtd">
<svg version="1.0" xmlns="http://www.w3.org/2000/svg"
 width="900.000000pt" height="520.000000pt" viewBox="0 0 900.000000 520.000000"
 preserveAspectRatio="xMidYMid meet">

<g transform="translate(0.000000,520.000000) scale(0.100000,-0.100000)"
fill="#000000" stroke="none">
<path d="M2810 4827 c-19 -12 -43 -38 -54 -57 -21 -35 -21 -37 -24 -2120 l-2
-2085 22 -45 c15 -30 37 -53 63 -67 l40 -23 1656 0 1656 0 33 23 c44 29 69 65
80 113 6 22 10 684 10 1562 l0 1522 -495 0 -495 0 0 600 0 600 -1229 0 -1228
0 -33 -23z m3000 -1702 l0 -115 -1298 0 c-714 0 -1301 2 -1303 4 -2 2 -3 54
-1 115 l3 111 1300 0 1299 0 0 -115z m0 -620 l0 -115 -1300 0 -1300 0 -1 85
c-1 47 -1 96 -1 110 0 14 0 27 1 30 1 3 586 5 1301 5 l1300 0 0 -115z m0 -625
l0 -110 -1303 0 -1303 0 2 38 c1 20 2 70 3 110 l1 72 1300 0 1300 0 0 -110z
m-1300 -625 l0 -115 -652 2 -652 3 1 28 c1 15 1 65 2 112 l1 85 650 0 650 0 0
-115z"/>
</g>
</svg>
